<?xml version="1.0" standalone="no"?>
<!DOCTYPE svg PUBLIC "-//W3C//DTD SVG 20010904//EN"
 "http://www.w3.org/TR/2001/REC-SVG-20010904/DTD/svg10.dtd">
<svg version="1.0" xmlns="http://www.w3.org/2000/svg"
 width="580.000000pt" height="580.000000pt" viewBox="0 0 580.000000 580.000000"
 preserveAspectRatio="xMidYMid meet">
<metadata>
Created by potrace 1.14, written by Peter Selinger 2001-2017
</metadata>
<g transform="translate(0.000000,580.000000) scale(0.100000,-0.100000)"
fill="#000000" stroke="none">
<path d="M1937 5673 c-25 -6 -47 -55 -47 -102 0 -32 -5 -43 -22 -52 -45 -24
-135 -99 -253 -210 -66 -63 -285 -263 -486 -445 -349 -316 -399 -369 -399
-417 0 -28 48 -73 90 -86 l41 -12 -35 -42 c-18 -23 -66 -91 -105 -150 -466
-710 -558 -1596 -249 -2391 132 -339 328 -637 593 -901 419 -420 930 -669
1535 -751 166 -22 472 -22 640 0 342 46 683 158 962 318 741 423 1226 1151
1323 1987 19 161 19 441 0 602 -57 487 -248 948 -552 1332 -86 109 -295 319
-408 410 -381 307 -809 490 -1320 563 -162 23 -485 23 -654 0 l-123 -16 -70
65 c-81 77 -172 146 -217 164 -27 12 -31 18 -31 51 0 23 -8 48 -21 64 -19 24
-26 26 -97 25 -42 -1 -85 -3 -95 -6z m1247 -598 c717 -84 1353 -484 1741
-1096 265 -417 400 -964 356 -1444 -30 -325 -94 -557 -231 -840 -269 -558
-740 -987 -1313 -1200 -102 -37 -286 -89 -293 -83 -4 5 -50 533 -89 1028 -14
173 -36 432 -49 575 -14 143 -30 319 -36 390 -20 234 -27 280 -44 317 -59 125
-364 273 -675 330 -184 33 -611 29 -733 -8 -16 -5 -18 4 -18 99 l0 104 39 7
c276 44 850 -17 1153 -123 124 -43 218 -133 218 -209 0 -46 17 -82 39 -82 10
0 35 19 56 41 104 116 107 253 8 365 -97 110 -316 212 -533 250 -162 27 -161
24 -153 403 3 160 7 291 9 291 2 0 40 -12 86 -26 86 -27 182 -72 228 -106 50
-36 79 7 65 98 -10 72 -39 96 -187 154 -72 28 -145 54 -161 57 -19 4 -32 15
-38 32 -13 34 -1 121 18 128 22 9 169 -34 250 -73 72 -34 113 -72 113 -104 0
-58 89 -64 188 -13 96 49 123 114 82 198 -22 45 -58 81 -363 360 -131 119
-192 182 -184 187 21 13 316 9 451 -7z m-777 -501 c31 -19 40 -40 48 -107 l7
-58 -68 8 c-95 11 -432 8 -469 -4 -29 -10 -30 -11 -26 -68 6 -111 -18 -102
275 -106 167 -3 259 -8 266 -15 8 -8 10 -108 8 -328 -3 -307 -4 -318 -24 -334
-18 -15 -59 -17 -377 -16 -401 0 -385 -3 -405 77 -38 151 -172 793 -172 823 0
20 7 51 16 69 28 59 52 64 361 74 331 11 528 5 560 -15z m-1253 -769 c60 -195
107 -357 105 -358 -2 -2 -78 -37 -169 -77 -176 -77 -223 -105 -282 -167 -58
-60 -74 -132 -44 -191 20 -39 115 -126 164 -151 23 -12 42 -27 42 -34 2 -52
-96 -1305 -102 -1299 -14 15 -127 250 -161 338 -50 127 -103 317 -128 459 -27
155 -37 489 -19 643 34 299 129 612 257 852 50 95 210 340 221 340 4 0 56
-160 116 -355z m1318 -1024 c197 -34 386 -110 561 -225 123 -80 149 -133 162
-331 13 -202 37 -481 56 -670 43 -427 97 -1160 86 -1167 -30 -18 -231 -33
-442 -32 -201 1 -248 4 -375 27 -251 45 -457 114 -681 228 -158 80 -160 83
-149 139 38 196 78 906 96 1702 l7 296 111 21 c151 28 152 28 313 30 100 1
174 -5 255 -18z"/>
<path d="M2480 2118 c-50 -27 -103 -96 -120 -156 -13 -47 -14 -731 0 -766 5
-14 19 -30 32 -37 33 -18 301 -18 351 -1 38 14 40 18 51 99 8 57 -12 624 -24
693 -19 102 -95 175 -196 186 -39 5 -58 1 -94 -18z"/>
</g>
</svg>
